<svg xmlns="http://www.w3.org/2000/svg" width="44" height="44" viewBox="0 0 100 100" shape-rendering="geometricPrecision"><g transform="translate(50.00 52.00) scale(0.9200) translate(-50 -50) translate(50 50)"><g transform="translate(-50 -50)"><g stroke="#000000" fill="#000000"><line x1="29.00" y1="58.00" x2="26.73" y2="83.90" stroke-width="7.0" stroke-linecap="round" /><line x1="40.00" y1="58.00" x2="41.81" y2="83.94" stroke-width="7.0" stroke-linecap="round" /><line x1="52.00" y1="58.00" x2="50.19" y2="83.94" stroke-width="7.0" stroke-linecap="round" /><line x1="61.00" y1="58.00" x2="63.27" y2="83.90" stroke-width="7.0" stroke-linecap="round" /></g><g fill="#000000" stroke="none"><circle cx="18" cy="38.00" r="5.5" /><circle cx="36" cy="39.00" r="18" /><circle cx="23" cy="44.00" r="13" /><circle cx="50" cy="37.00" r="16" /><circle cx="30" cy="28.00" r="12" /><circle cx="46" cy="26.00" r="11" /><circle cx="28" cy="50.00" r="12" /><circle cx="44" cy="50.00" r="12" /><circle cx="53" cy="44.00" r="11" /></g><g fill="#000000" stroke="none"><ellipse cx="70" cy="37.00" rx="6.2" ry="3.6" transform="rotate(-34 70 37.00)" /><ellipse cx="76" cy="48.00" rx="12.0" ry="12.5" /><ellipse cx="85" cy="53.00" rx="7.0" ry="5.6" /></g></g></g></svg>