<svg xmlns="http://www.w3.org/2000/svg" width="44" height="44" viewBox="0 0 100 100" shape-rendering="geometricPrecision"><g transform="translate(50.00 52.00) scale(0.9200) translate(-50 -50) translate(50 50)"><g transform="translate(-50 -50)"><g fill="#000000" stroke="#000000" stroke-width="7.5" stroke-linejoin="round"><line x1="28.00" y1="61.10" x2="21.38" y2="84.17" stroke-linecap="round" /><line x1="42.00" y1="61.10" x2="47.81" y2="84.39" stroke-linecap="round" /><line x1="58.00" y1="61.10" x2="53.83" y2="84.74" stroke-linecap="round" /></g><g fill="#000000" stroke="none"><rect x="10" y="24.10" width="60" height="44" rx="22" /><circle cx="20" cy="41.10" r="12" /><circle cx="26" cy="30.10" r="13" /><circle cx="41" cy="26.10" r="14" /><circle cx="56" cy="31.10" r="13" /><circle cx="62" cy="43.10" r="12" /><circle cx="14" cy="41.10" r="6.0" /></g><g fill="#000000" stroke="none"><ellipse cx="67" cy="37.10" rx="7.0" ry="4.0" transform="rotate(-38 67 37.10)" /><ellipse cx="75" cy="48.10" rx="13.5" ry="14.0" /><ellipse cx="86" cy="55.10" rx="8.0" ry="6.2" /></g></g></g></svg>