<svg xmlns="http://www.w3.org/2000/svg" width="44" height="44" viewBox="0 0 100 100" shape-rendering="geometricPrecision"><g transform="translate(50.00 52.00) scale(0.9200) translate(-50 -50) translate(50 50)"><g transform="translate(-50 -50)"><g stroke="#000000" fill="#000000"><line x1="29.00" y1="54.00" x2="20.57" y2="66.50" stroke-width="7.0" stroke-linecap="round" /><line x1="40.00" y1="54.00" x2="48.43" y2="66.50" stroke-width="7.0" stroke-linecap="round" /><line x1="52.00" y1="54.00" x2="44.46" y2="67.06" stroke-width="7.0" stroke-linecap="round" /><line x1="61.00" y1="54.00" x2="68.54" y2="67.06" stroke-width="7.0" stroke-linecap="round" /></g><g fill="#000000" stroke="none"><circle cx="18" cy="34.00" r="5.5" /><circle cx="36" cy="35.00" r="18" /><circle cx="23" cy="40.00" r="13" /><circle cx="50" cy="33.00" r="16" /><circle cx="30" cy="24.00" r="12" /><circle cx="46" cy="22.00" r="11" /><circle cx="28" cy="46.00" r="12" /><circle cx="44" cy="46.00" r="12" /><circle cx="53" cy="40.00" r="11" /></g><g fill="#000000" stroke="none"><ellipse cx="70" cy="33.00" rx="6.2" ry="3.6" transform="rotate(-34 70 33.00)" /><ellipse cx="76" cy="44.00" rx="12.0" ry="12.5" /><ellipse cx="85" cy="49.00" rx="7.0" ry="5.6" /></g></g></g></svg>